<svg width="30" height="48" viewBox="0 0 30 48" fill="none" xmlns="http://www.w3.org/2000/svg">
<path d="M28.7609 45.5024L20.8704 36.0494V19.4789H21.8573C22.676 19.4789 23.339 18.8077 23.339 17.9789C23.339 17.1502 22.676 16.4789 21.8573 16.4789H19.3886C18.57 16.4789 17.9069 17.1502 17.9069 17.9789V36.6269C17.9068 36.9983 18.043 37.3565 18.2892 37.6319L24.3259 45.0074H5.55928L11.596 37.6319C11.8422 37.3565 11.9784 36.9983 11.9783 36.6269V17.979C11.9783 17.1502 11.3152 16.479 10.4965 16.479H8.02787C7.20919 16.479 6.5461 17.1502 6.5461 17.979C6.5461 18.8077 7.20919 19.479 8.02787 19.479H9.01473V36.0495L1.1243 45.5025C0.9324 45.7178 0.806214 45.9849 0.760987 46.2713C0.715759 46.5577 0.753426 46.8512 0.869435 47.1164C0.985828 47.3817 1.17574 47.607 1.41614 47.7652C1.65654 47.9234 1.9371 48.0075 2.22382 48.0075H27.6614C27.9481 48.0075 28.2287 47.9234 28.4691 47.7652C28.7095 47.607 28.8994 47.3817 29.0158 47.1164C29.2528 46.575 29.1536 45.942 28.7609 45.5025V45.5024ZM13.4608 14.9849C15.0937 14.9849 16.417 13.6447 16.417 11.9924C16.417 10.3417 15.0937 9.00146 13.4608 9.00146C11.8272 9.00146 10.5047 10.3417 10.5047 11.9924C10.5047 13.6447 11.8272 14.9849 13.4608 14.9849ZM23.1146 10.5322C26.0025 10.5322 28.3437 8.17266 28.3437 5.26266C28.3437 2.35266 26.0033 -0.00683594 23.1146 -0.00683594C20.2273 -0.00683594 17.8854 2.35266 17.8854 5.26266C17.8854 8.17266 20.2273 10.5322 23.1146 10.5322ZM23.0916 2.98412C24.3259 2.98412 25.3298 3.99587 25.3298 5.24012C25.3298 6.48362 24.3259 7.49612 23.0916 7.49612C21.8573 7.49612 20.8534 6.48362 20.8534 5.24012C20.8541 3.99587 21.8573 2.98412 23.0916 2.98412Z" fill="#131D3B"/>
</svg>
