<svg width="32" height="42" viewBox="0 0 32 42" fill="none" xmlns="http://www.w3.org/2000/svg">
<path d="M10.1539 12L4.0885 21.212V38H27.7968V12H10.1539ZM8.03989 8H29.7725C30.2965 8 30.799 8.21071 31.1695 8.58579C31.5401 8.96086 31.7482 9.46957 31.7482 10V40C31.7482 40.5304 31.5401 41.0391 31.1695 41.4142C30.799 41.7893 30.2965 42 29.7725 42H2.11281C1.58882 42 1.0863 41.7893 0.715783 41.4142C0.345269 41.0391 0.137115 40.5304 0.137115 40V20L8.03989 8ZM17.9184 0H27.7968C28.3208 0 28.8233 0.210714 29.1939 0.585786C29.5644 0.960859 29.7725 1.46957 29.7725 2V6H15.9427V2C15.9427 1.46957 16.1508 0.960859 16.5213 0.585786C16.8918 0.210714 17.3944 0 17.9184 0ZM8.03989 22H11.9913V34H8.03989V22Z" fill="white"/>
</svg>
