<svg width="43" height="43" viewBox="0 0 43 43" fill="none" xmlns="http://www.w3.org/2000/svg">
<path d="M18.7448 10.5C19.8947 10.5103 21.0308 10.2457 22.0607 9.72785C23.0906 9.20996 23.9852 8.45333 24.6719 7.5195C25.3656 8.44561 26.2617 9.19658 27.29 9.7136C28.3183 10.2306 29.4508 10.4997 30.599 10.4997C31.7471 10.4997 32.8796 10.2306 33.9079 9.7136C34.9362 9.19658 35.8323 8.44561 36.526 7.5195C37.2127 8.45333 38.1073 9.20996 39.1372 9.72785C40.1671 10.2457 41.3032 10.5103 42.4531 10.5V7.5C41.4441 7.44025 40.4755 7.07802 39.6705 6.4594C38.8654 5.84078 38.2604 4.99373 37.9322 4.026C37.8326 3.72805 37.6435 3.46903 37.3914 3.2851C37.1393 3.10117 36.8368 3.0015 36.526 3C36.2158 2.99774 35.9128 3.09512 35.6607 3.27812C35.4086 3.46112 35.2203 3.72033 35.1228 4.0185C34.7953 4.98786 34.1903 5.83661 33.3846 6.45663C32.579 7.07664 31.6092 7.43986 30.599 7.5C29.59 7.44025 28.6213 7.07802 27.8163 6.4594C27.0113 5.84078 26.4062 4.99373 26.0781 4.026C25.9784 3.72805 25.7893 3.46903 25.5372 3.2851C25.2851 3.10117 24.9826 3.0015 24.6719 3C24.3606 2.99322 24.0556 3.08884 23.8026 3.27248C23.5495 3.45613 23.3622 3.7179 23.2686 4.0185C22.9412 4.98786 22.3361 5.83661 21.5304 6.45663C20.7248 7.07664 19.7551 7.43986 18.7448 7.5H17.263V6C17.263 4.4087 16.6386 2.88258 15.527 1.75736C14.4155 0.632141 12.9079 0 11.3359 0C9.76398 0 8.2564 0.632141 7.14486 1.75736C6.03332 2.88258 5.40886 4.4087 5.40886 6V22.893C3.64695 24.1257 2.30434 25.8794 1.56476 27.9142C0.825171 29.949 0.724731 32.1654 1.27718 34.2601C1.82963 36.3549 3.00798 38.2257 4.651 39.6165C6.29402 41.0074 8.32144 41.8503 10.4559 42.03C12.5903 42.2098 14.7274 41.7174 16.5748 40.6205C18.4222 39.5235 19.8897 37.8755 20.7764 35.9019C21.6632 33.9283 21.9258 31.7256 21.5284 29.5951C21.1311 27.4646 20.0931 25.5104 18.5566 24H18.7448C19.8947 24.0103 21.0308 23.7458 22.0607 23.2279C23.0906 22.71 23.9852 21.9533 24.6719 21.0195C25.3656 21.9456 26.2617 22.6966 27.29 23.2136C28.3183 23.7306 29.4508 23.9997 30.599 23.9997C31.7471 23.9997 32.8796 23.7306 33.9079 23.2136C34.9362 22.6966 35.8323 21.9456 36.526 21.0195C37.2127 21.9533 38.1073 22.71 39.1372 23.2279C40.1671 23.7458 41.3032 24.0103 42.4531 24V21C41.4441 20.9402 40.4755 20.578 39.6705 19.9594C38.8654 19.3408 38.2604 18.4937 37.9322 17.526C37.8326 17.2281 37.6435 16.969 37.3914 16.7851C37.1393 16.6012 36.8368 16.5015 36.526 16.5C36.2158 16.4977 35.9128 16.5951 35.6607 16.7781C35.4086 16.9611 35.2203 17.2203 35.1228 17.5185C34.7953 18.4879 34.1903 19.3366 33.3846 19.9566C32.579 20.5766 31.6092 20.9399 30.599 21C29.59 20.9402 28.6213 20.578 27.8163 19.9594C27.0113 19.3408 26.4062 18.4937 26.0781 17.526C25.9784 17.2281 25.7893 16.969 25.5372 16.7851C25.2851 16.6012 24.9826 16.5015 24.6719 16.5C24.3606 16.4932 24.0556 16.5888 23.8026 16.7725C23.5495 16.9561 23.3622 17.2179 23.2686 17.5185C22.9412 18.4879 22.3361 19.3366 21.5304 19.9566C20.7248 20.5766 19.7551 20.9399 18.7448 21H17.263V10.5H18.7448ZM8.3724 6C8.3724 5.20435 8.68463 4.44129 9.2404 3.87868C9.79617 3.31607 10.55 3 11.3359 3C12.1219 3 12.8757 3.31607 13.4315 3.87868C13.9873 4.44129 14.2995 5.20435 14.2995 6V15H8.3724V6ZM11.3359 39C9.70569 39.0004 8.12087 38.4562 6.82736 37.4518C5.53384 36.4473 4.60395 35.0388 4.18195 33.4447C3.75995 31.8507 3.86944 30.1602 4.49342 28.6356C5.11741 27.1109 6.221 25.8374 7.633 25.0125L8.3724 24.5775V18H14.2995V24.579L15.0389 25.0125C16.4509 25.8374 17.5545 27.1109 18.1785 28.6356C18.8024 30.1602 18.9119 31.8507 18.4899 33.4447C18.0679 35.0388 17.138 36.4473 15.8445 37.4518C14.551 38.4562 12.9662 39.0004 11.3359 39Z" fill="#131D3B"/>
</svg>
