<svg width="48" height="32" viewBox="0 0 48 32" fill="none" xmlns="http://www.w3.org/2000/svg">
<path d="M33.5742 1.82282e-05C33.1156 -0.00186251 32.6679 0.141838 32.2942 0.410907C31.9205 0.679976 31.6395 1.06087 31.4908 1.50002H25.4244V4.50002H31.722L32.1858 6.00002H26.9062C23.0388 6.00002 21.0947 8.10902 20.3775 9.00002H15.3766C13.7021 8.01777 11.8012 7.50034 9.86586 7.50002C6.66523 7.50002 4.03064 8.76602 4.03064 8.76602L5.32867 11.484C5.32867 11.484 7.44612 10.5 9.86586 10.5C11.0646 10.5 12.1922 10.869 13.0146 11.2035L11.7181 13.92C10.8788 13.6515 10.005 13.51 9.12497 13.5C4.22179 13.5 0.234348 17.5365 0.234348 22.5C0.234348 27.4635 4.22179 31.5 9.12497 31.5C11.2246 31.5006 13.2563 30.7473 14.8588 29.374C16.4612 28.0006 17.5305 26.0964 17.8763 24H23.0166C24.1397 24 25.2051 23.3385 25.703 22.3125H25.6556L27.2767 18.984C29.7423 17.8365 31.7516 15.8445 33.1578 13.9695C33.5445 13.4535 33.875 12.9795 34.1758 12.5145L37.3245 22.9215L40.1962 22.0785L38.5292 16.5465C38.6092 16.5405 38.6789 16.5 38.7604 16.5C42.0306 16.5 44.6875 19.1895 44.6875 22.5C44.6875 25.8105 42.0306 28.5 38.7604 28.5C37.6026 28.4984 36.4707 28.1537 35.5041 27.5087C34.5375 26.8636 33.7785 25.9463 33.3207 24.8699C32.8629 23.7934 32.7263 22.6049 32.9278 21.4508C33.1292 20.2967 33.6599 19.2275 34.4543 18.375L33.5282 15.234C32.3969 16.0685 31.476 17.1614 30.8403 18.424C30.2046 19.6865 29.8721 21.083 29.8698 22.5C29.8698 27.4635 33.8572 31.5 38.7604 31.5C43.6636 31.5 47.651 27.4635 47.651 22.5C47.651 17.5365 43.6636 13.5 38.7604 13.5C38.3729 13.5042 37.9862 13.5358 37.6031 13.5945L34.8707 4.50002H37.2786V1.82282e-05H33.5742ZM26.9062 9.00002H32.8333C32.2317 10.0965 31.5507 11.1464 30.7959 12.141C29.4178 13.9695 27.5019 15.9135 25.6556 16.5945L25.054 16.782L24.8228 17.3445L23.0166 21H9.12497V24H14.8209C14.16 26.5845 11.8796 28.5 9.12497 28.5C5.8547 28.5 3.19789 25.8105 3.19789 22.5C3.19789 19.1895 5.8547 16.5 9.12497 16.5C11.3076 16.5 13.188 17.7135 14.2193 19.5H17.5059C16.9025 17.7906 15.8054 16.3043 14.3571 15.234L15.9782 12H21.766L22.2297 11.343C22.2297 11.343 23.6656 9.00002 26.9062 9.00002Z" fill="white"/>
</svg>
